<?xml version="1.0" encoding="utf-8"?>
<!-- Generator: Adobe Illustrator 24.2.1, SVG Export Plug-In . SVG Version: 6.00 Build 0)  -->
<svg version="1.1" id="Layer_1" xmlns="http://www.w3.org/2000/svg" xmlns:xlink="http://www.w3.org/1999/xlink" x="0px" y="0px"
	 viewBox="0 0 50 50" style="enable-background:new 0 0 50 50;" xml:space="preserve">
<style type="text/css">
	.st0{fill:#F9F9F9;}
</style>
<g>
	<g>
		<g>
			<path class="st0" d="M30.7,33.5c-0.6,0-1.2-0.2-1.7-0.7c-0.9-0.9-0.9-2.4,0-3.3l15.5-15.5c0.9-0.9,2.4-0.9,3.3,0
				c0.9,0.9,0.9,2.4,0,3.3L32.3,32.9C31.8,33.3,31.3,33.5,30.7,33.5z"/>
		</g>
		<g>
			<path class="st0" d="M26.6,26.3c-0.6,0-1.2-0.2-1.7-0.7c-0.9-0.9-0.9-2.4,0-3.3L43.1,4.2c0.9-0.9,2.4-0.9,3.3,0
				c0.9,0.9,0.9,2.4,0,3.3L28.3,25.6C27.8,26.1,27.2,26.3,26.6,26.3z"/>
		</g>
		<g>
			<path class="st0" d="M19.4,22.3c-0.6,0-1.2-0.2-1.7-0.7c-0.9-0.9-0.9-2.4,0-3.3L32,4.1c0.9-0.9,2.4-0.9,3.3,0
				c0.9,0.9,0.9,2.4,0,3.3L21.1,21.6C20.6,22.1,20,22.3,19.4,22.3z"/>
		</g>
		<path class="st0" d="M45,27.8c-0.9-0.9-2.4-0.9-3.3,0L28.1,41.6c-0.1,0.1-0.2,0.1-0.4,0.1H17v-3.5c0-2.4-1.9-4.3-4.3-4.3H9.1V22.6
			c0-0.1,0.1-0.3,0.1-0.4l10.5-10.6c1-0.9,1-2.4,0.1-3.3c-0.9-1-2.4-1-3.3-0.1L6,18.8c-1,1-1.6,2.4-1.6,3.8c0,0,0,13.1,0,15.6
			c0,0,0,0,0,0v0.4c0,0,0,0,0,0v2.8v0.7c0,2.4,1.9,4.3,4.3,4.3h4c0,0,0,0,0,0l15,0c1.4,0,2.7-0.5,3.7-1.5L45,31.2
			C46,30.3,46,28.8,45,27.8z"/>
	</g>
</g>
</svg>
