<?xml version="1.0" encoding="utf-8"?>
<!-- Generator: Adobe Illustrator 24.2.1, SVG Export Plug-In . SVG Version: 6.00 Build 0)  -->
<svg version="1.1" id="Layer_1" xmlns="http://www.w3.org/2000/svg" xmlns:xlink="http://www.w3.org/1999/xlink" x="0px" y="0px"
	 viewBox="0 0 50 50" style="enable-background:new 0 0 50 50;" xml:space="preserve">
<g>
	<g>
		<g>
			<path d="M29.2,33.6c-0.6,0-1.2-0.2-1.7-0.7c-0.9-0.9-0.9-2.4,0-3.3L43,14.1c0.9-0.9,2.4-0.9,3.3,0c0.9,0.9,0.9,2.4,0,3.3
				L30.9,32.9C30.4,33.3,29.8,33.6,29.2,33.6z"/>
		</g>
		<g>
			<path d="M25.2,26.4c-0.6,0-1.2-0.2-1.7-0.7c-0.9-0.9-0.9-2.4,0-3.3L41.7,4.3c0.9-0.9,2.4-0.9,3.3,0c0.9,0.9,0.9,2.4,0,3.3
				L26.9,25.7C26.4,26.1,25.8,26.4,25.2,26.4z"/>
		</g>
		<g>
			<path d="M18,22.3c-0.6,0-1.2-0.2-1.7-0.7c-0.9-0.9-0.9-2.4,0-3.3L30.6,4.1c0.9-0.9,2.4-0.9,3.3,0c0.9,0.9,0.9,2.4,0,3.3
				L19.6,21.7C19.2,22.1,18.6,22.3,18,22.3z"/>
		</g>
		<path d="M43.6,27.9c-0.9-0.9-2.4-0.9-3.3,0L26.6,41.7c-0.1,0.1-0.2,0.1-0.4,0.1H15.5v-3.5c0-2.4-1.9-4.3-4.3-4.3H7.7V22.6
			c0-0.1,0.1-0.3,0.1-0.4l10.5-10.6c1-0.9,1-2.4,0.1-3.3c-0.9-1-2.4-1-3.3-0.1L4.6,18.9c-1,1-1.6,2.4-1.6,3.8c0,0,0,13.1,0,15.6
			c0,0,0,0,0,0v0.4c0,0,0,0,0,0v2.8v0.7c0,2.4,1.9,4.3,4.3,4.3h4c0,0,0,0,0,0l15,0c1.4,0,2.7-0.5,3.7-1.5l13.6-13.8
			C44.5,30.3,44.5,28.8,43.6,27.9z"/>
	</g>
</g>
</svg>
